# xmcd
#
# Track frame offsets:
# 183
# 10208
# 25938
# 43203
# 60455
# 73943
# 93303
# 104653
# 120450
# 135838
# 150025
# 167453
# 180085
# 191493
#
# Disc length: 2792 seconds
#
#
# Revision: 2
# Processed by: cddbd v1.5.2PL0 Copyright (c) Steve Scherf et al.
# Submitted via: FreeRIP 2.95 
#
DISCID=a40ae60e
DTITLE=Willi Nelson - Monster of Country
DYEAR=1900
DGENRE=
TTITLE0=What a Wonderfull World
TTITLE1=Always on my mind
TTITLE2=As Times Goes By
TTITLE3=Stardust
TTITLE4=Who's Sorry Now?
TTITLE5=Georgia on My Mind
TTITLE6=On the Road Again
TTITLE7=Spanish Eyes
TTITLE8=Let It Be Me
TTITLE9=Moon River
TTITLE10=All of Me
TTITLE11=Twilight Time
TTITLE12=A Song For You
TTITLE13=Someone to Watch Over Me
EXTD=
EXTT0=
EXTT1=
EXTT2=
EXTT3=
EXTT4=
EXTT5=
EXTT6=
EXTT7=
EXTT8=
EXTT9=
EXTT10=
EXTT11=
EXTT12=
EXTT13=
PLAYORDER=
